<svg xmlns="http://www.w3.org/2000/svg" version="1.1" xmlns:xlink="http://www.w3.org/1999/xlink" xmlns:svgjs="http://svgjs.dev/svgjs" width="2000" height="308" viewBox="0 0 2000 308"><g transform="matrix(1,0,0,1,-1.2121212121212466,-0.21769100760212723)"><svg viewBox="0 0 396 61" data-background-color="#ffffff" preserveAspectRatio="xMidYMid meet" height="308" width="2000" xmlns="http://www.w3.org/2000/svg" xmlns:xlink="http://www.w3.org/1999/xlink"><g id="tight-bounds" transform="matrix(1,0,0,1,0.2400000000000091,0.04311412812899107)"><svg viewBox="0 0 395.52 60.91377174374204" height="60.91377174374204" width="395.52"><g><svg viewBox="0 0 395.52 60.91377174374204" height="60.91377174374204" width="395.52"><g><svg viewBox="0 0 395.52 60.91377174374204" height="60.91377174374204" width="395.52"><g id="textblocktransform"><svg viewBox="0 0 395.52 60.91377174374204" height="60.91377174374204" width="395.52" id="textblock"><g><svg viewBox="0 0 395.52 60.91377174374204" height="60.91377174374204" width="395.52"><g transform="matrix(1,0,0,1,0,0)"><svg width="395.52" viewBox="2.22 -34.99 230.16 35.45" height="60.91377174374204" data-palette-color="#000000"><path d="M4.32-1.76L4.32-1.76Q3.47-2.25 2.84-2.78 2.22-3.32 2.22-3.93L2.22-3.93Q2.22-5.1 3.22-5.1L3.22-5.1Q3.88-5.1 4.69-4.37 5.49-3.64 6.49-3.09 7.5-2.54 8.67-2.15L8.67-2.15Q11.08-1.34 13.13-1.34 15.19-1.34 16.3-1.61 17.41-1.88 18.16-2.34L18.16-2.34Q19.78-3.34 19.78-4.91L19.78-4.91Q19.78-6.35 18.38-7.81L18.38-7.81Q17.21-9.06 15.06-10.79L15.06-10.79 10.89-14.06Q4.61-18.9 3.49-22.9L3.49-22.9Q3.1-24.29 3.1-26 3.1-27.71 3.87-29.37 4.64-31.03 6.15-32.28L6.15-32.28Q9.4-34.99 14.99-34.99L14.99-34.99Q17.85-34.99 20.12-34.14 22.39-33.3 23.22-32.64 24.05-31.98 24.05-31.45L24.05-31.45Q24.05-30.32 23.12-30.32L23.12-30.32Q22.58-30.32 21.97-30.86 21.36-31.4 20.62-31.8 19.87-32.2 18.92-32.52L18.92-32.52Q16.87-33.2 14.89-33.2L14.89-33.2Q11.25-33.2 11.25-30.81L11.25-30.81Q11.25-29.81 11.91-28.96L11.91-28.96Q13.09-27.47 16.49-24.69 19.9-21.92 21.96-19.85 24.02-17.77 25.1-16.11L25.1-16.11Q26.81-13.5 26.81-10.68 26.81-7.86 25.82-5.9 24.83-3.93 23.05-2.51L23.05-2.51Q19.29 0.46 13.72 0.46 8.15 0.46 4.32-1.76ZM54.78-2.1L54.78-2.1Q56.03-2.1 56.03-1.12L56.03-1.12Q56.03-0.68 55.49-0.34 54.95 0 53.64 0L53.64 0 32.96 0 32.96-34.55Q42.58-34.55 52.19-34.55L52.19-34.55 54.2-34.62Q56.03-34.62 56.03-33.54L56.03-33.54Q56.03-33.13 55.72-32.78 55.42-32.42 55.03-32.42L55.03-32.42Q54.39-32.42 53.68-32.57L53.68-32.57Q52.63-32.79 50.8-32.79L50.8-32.79 45.41-32.79 45.41-25.34 49.85-25.34Q49.85-25.34 52.85-25.46L52.85-25.46Q53.39-25.46 53.77-25.21 54.15-24.95 54.15-24.49L54.15-24.49Q54.15-23.46 52.78-23.46L52.78-23.46 51.73-23.49Q50.93-23.56 50.39-23.56L50.39-23.56 45.41-23.56 45.41-1.78 50.8-1.78Q52.61-1.78 53.37-1.93L53.37-1.93Q54.27-2.1 54.78-2.1ZM83.49-2.22L83.49-2.22Q84.79-2.22 84.79-1.12L84.79-1.12Q84.79-0.68 84.26-0.34 83.74 0 82.39 0L82.39 0 62.57 0 62.57-34.55 75.02-34.55 75.02-1.61 79.58-1.61Q81.12-1.61 82.23-1.92 83.34-2.22 83.49-2.22ZM110.37-2.22L110.37-2.22Q111.66-2.22 111.66-1.12L111.66-1.12Q111.66-0.68 111.14-0.34 110.61 0 109.27 0L109.27 0 89.45 0 89.45-34.55 101.9-34.55 101.9-1.61 106.46-1.61Q108-1.61 109.11-1.92 110.22-2.22 110.37-2.22ZM116.32 0L116.32-34.55Q122.91-34.55 126.81-34.55 130.7-34.55 131.53-34.52L131.53-34.52Q135.15-34.35 136.64-33.68 138.12-33.01 139-32.18L139-32.18Q140.88-30.32 140.88-27.69L140.88-27.69Q140.88-25.07 139.05-23.1L139.05-23.1Q138.49-22.49 137.76-22.05L137.76-22.05Q141.74-21.31 144.28-18.7L144.28-18.7Q147.04-15.87 147.04-11.79L147.04-11.79Q147.04-7.64 144.47-4.64L144.47-4.64Q140.88-0.49 133.39-0.1L133.39-0.1Q131.48 0 129.63 0L129.63 0 116.32 0ZM132.34-22.53L132.34-22.53 133.58-22.39 133.97-22.39Q135.9-22.39 137.32-23.8L137.32-23.8Q138.83-25.32 138.83-27.51L138.83-27.51Q138.83-30.2 136.51-31.64L136.51-31.64Q135.34-32.37 134.18-32.51 133.02-32.64 132.36-32.69L132.36-32.69Q131-32.79 128.77-32.79L128.77-32.79 128.77-1.81 131.48-1.81Q135.63-1.81 138.25-2.83L138.25-2.83Q141.37-3.91 143.2-6.3L143.2-6.3Q144.94-8.57 144.94-11.06 144.94-13.55 144.2-15.26 143.47-16.97 142.08-18.16L142.08-18.16Q139.25-20.63 134.19-20.63L134.19-20.63 132.51-20.48Q131.73-20.48 131.36-20.8 131-21.12 131-21.53L131-21.53Q131-22.53 132.34-22.53ZM169.47-11.84L169.47-11.84 171.47-11.69Q175.77-11.69 178.77-14.7L178.77-14.7Q181.77-17.7 181.77-22.17L181.77-22.17Q181.77-28.03 176.62-30.86L176.62-30.86Q173.79-32.42 170.57-32.67L170.57-32.67Q169.2-32.79 168.03-32.79L168.03-32.79 166.37-32.79Q165.86-32.79 165.47-32.76L165.47-32.76 165.47 0 153.01 0 153.01-34.55Q158.73-34.55 162.27-34.55 165.81-34.55 166.88-34.52 167.96-34.5 168.8-34.46 169.64-34.42 170.37-34.38L170.37-34.38Q171.45-34.28 173.41-33.91 175.38-33.54 177.31-32.52 179.24-31.49 180.63-29.98L180.63-29.98Q183.63-26.76 183.63-22.31L183.63-22.31Q183.63-17.92 180.85-14.55L180.85-14.55Q177.99-11.11 173.23-10.11L173.23-10.11Q175.5-3.08 179.02-1.71L179.02-1.71Q180.09-1.29 181.16-1.29L181.16-1.29 183.09-1.76Q184-1.76 184-0.83L184-0.83Q184 0.46 180.97 0.46L180.97 0.46Q178.77 0.46 176.94-0.76L176.94-0.76Q174.08-2.47 172.08-7.4L172.08-7.4 171.37-9.13Q171.2-9.55 171.07-9.64 170.93-9.74 170.61-9.74 170.28-9.74 170.03-9.69L170.03-9.69 169.45-9.67Q168.47-9.67 168.11-10.03 167.76-10.4 167.76-10.79L167.76-10.79Q167.76-11.84 169.47-11.84ZM189.24 0L189.24-34.55 201.69-34.55 201.69 0 189.24 0ZM209.89-1.76L209.89-1.76Q209.04-2.25 208.42-2.78 207.8-3.32 207.8-3.93L207.8-3.93Q207.8-5.1 208.8-5.1L208.8-5.1Q209.46-5.1 210.26-4.37 211.07-3.64 212.07-3.09 213.07-2.54 214.24-2.15L214.24-2.15Q216.66-1.34 218.71-1.34 220.76-1.34 221.87-1.61 222.98-1.88 223.74-2.34L223.74-2.34Q225.35-3.34 225.35-4.91L225.35-4.91Q225.35-6.35 223.96-7.81L223.96-7.81Q222.79-9.06 220.64-10.79L220.64-10.79 216.46-14.06Q210.19-18.9 209.06-22.9L209.06-22.9Q208.67-24.29 208.67-26 208.67-27.71 209.44-29.37 210.21-31.03 211.73-32.28L211.73-32.28Q214.97-34.99 220.56-34.99L220.56-34.99Q223.42-34.99 225.69-34.14 227.96-33.3 228.79-32.64 229.62-31.98 229.62-31.45L229.62-31.45Q229.62-30.32 228.69-30.32L228.69-30.32Q228.16-30.32 227.55-30.86 226.94-31.4 226.19-31.8 225.45-32.2 224.49-32.52L224.49-32.52Q222.44-33.2 220.47-33.2L220.47-33.2Q216.83-33.2 216.83-30.81L216.83-30.81Q216.83-29.81 217.49-28.96L217.49-28.96Q218.66-27.47 222.07-24.69 225.47-21.92 227.53-19.85 229.6-17.77 230.67-16.11L230.67-16.11Q232.38-13.5 232.38-10.68 232.38-7.86 231.39-5.9 230.4-3.93 228.62-2.51L228.62-2.51Q224.86 0.46 219.29 0.46 213.73 0.46 209.89-1.76Z" opacity="1" transform="matrix(1,0,0,1,0,0)" fill="#000000" class="wordmark-text-0" data-fill-palette-color="primary" id="text-0"></path></svg></g></svg></g></svg></g></svg></g></svg></g><defs></defs></svg><rect width="395.52" height="60.91377174374204" fill="none" stroke="none" visibility="hidden"></rect></g></svg></g></svg>